<?xml version="1.0" encoding="UTF-8" standalone="no"?>
<svg id="svg2" xmlns:rdf="http://www.w3.org/1999/02/22-rdf-syntax-ns#" xmlns="http://www.w3.org/2000/svg" height="3592pt" width="1352pt" version="1.1" xmlns:cc="http://creativecommons.org/ns#" xmlns:dc="http://purl.org/dc/elements/1.1/" viewBox="0 0 1352 3592">
<g id="g4216" transform="translate(-1200)">
<g>
<path id="rect4213" d="m1329.1 18.014c-8.6589-0.0027-17.32 0.0066-25.98 0.02656-0.55 83.33 0.5506 166.7-0.5594 250.03-9.9375-1.4062-21.063-5.7582-31.447-5.7406-6.2301 0.0105-12.193 1.5934-17.473 6.3297-23.3 26.3-4.54 68.09-27.15 94.82-12.17 12.02-20.84 27.861-20.23 45.411 5.22 64.03 28.309 125.59 29.859 190.08-1.68 39.29-5.3188 79.07 1.8812 118.05 18.52 81.56 51.119 163.54 109.37 224.83-1.96 4.78 2.8212 12.799 4.3312 18.559 28.1 92.47 59.159 184.13 84.459 277.44 17.67 61.29-3.2994 123.53-8.3094 184.98-2.29 21.78 6.66 43.29 21.2 59.22 6.41 3.96-0.08 9.5694-2.6203 13.359-26.39 36.21-35.11 82.471-30.4 126.44 13.23 192.04 32.509 383.65 49.559 575.37 7.82 10.79 22.771 12.379 33.961 18.459 27.81 79.94 46.98 164.03 48.48 249.15 3.26 57.08 3.8991 114.39 9.6391 171.32-3.15-0.51-6.0697-1.7706-8.9297-3.0906 1.12 53.47 1.7003 106.9 3.4703 160.37 42.32 147.42 92.83 293.1 122.48 443.89 4.01 25.16 7.7097 51.62 0.2297 76.48-9.4 24.98-39.07 31.32-54.55 51.57-31.7 39.26-53.79 86.319-65.85 135.19-2.79 10.77-2.7791 28.201 10.961 31.231 47.22 8.3 98.339 9.29 142.46-11.85 29.2-16.96 36.37-52.651 51.93-80.081 16.12-27.91 49.141-36.92 73.411-55.55 13.19-13 5.18-32.889 0.2-47.789-61.9-167.17-54.7-348.84-46.65-523.78 1.39-64.82-6.6009-129.45-18.411-193.11-0.7276-0.48-1.4997-0.7403-2.3172-0.7687-0.2725-0.01-0.5504 0.01-0.8328 0.049-10.72-29.26 1.05-59.199 2.65-88.989 11.77-115.55 23.08-231.25 30.77-347.1 13.82-10.25 31.36-15.87 45.13-26.2-9.01-54.39-5.5794-112.03 9.2906-164.49 41.95 29.22 83.61 60.981 125.42 91.141 2.16 1.42 2.4897-2.2703 3.4797-3.5203 81.4 93.92 159.42 191.02 239.83 285.86-1 21.02-6.4094 42.07-3.0094 63.32-1.1062-0.031-2.7991-0.812-4.025-0.7344-0.7355 0.047-1.3025 0.4016-1.475 1.4141-8.98 38.8-19.59 77.581-22.28 117.48 1.1 41.95 9.5997 83.219 13.98 124.89 10.5 94.98 18.95 190.42 17.98 286.06 0.82 56.2-7.0297 112.39-23.88 166.07-5.06 15.63-11.321 35.43 1.8094 48.97 19.46 20.9 48.04 28.1 72.85 40.37 0.37 1.4 0.4609 3.42-1.3391 3.9-19.43 9.22-41.311 18.92-55.981 33.82-28.21 22.49-46.139 56.34-58.259 89.97-11.29 30.78-8.59 65.179-1.15 96.809 21.17 83.34 107.22 144.56 193.03 135.09 51.5-4.24 100.38-31.581 131.08-73.131 26.05-35.54 40.231-80.109 36.291-124.29-1.92-27.29-10.781-53.561-22.941-77.911 19.54-0.01 48.641-4.1891 50.361-28.939-1.57-21.39-13.611-40.151-24.911-57.741-34.22-51.73-79.859-94.62-129.02-131.97-23.05-17.23-40.98-42.889-42.82-72.259-2.51-61.14 16.069-120.31 30.709-178.96 35.37-124.85 63.44-251.61 86.83-379.21-0.48-2.02 3.6506-8.8394-1.3094-7.7594-0.77-31.8-7.3306-63.14-8.4406-94.9-1-25.33 10.401-49.76 6.2312-75.12-6.29-50.63-30.171-96.55-52.161-141.83-40.05-83.2-86.659-163.18-129.14-245 6.65-0.96 13.419-1.0606 20.089-1.9906-56.85-82.83-118.93-162.07-180.86-241.17-23.21-49.15-47.1-97.99-69.95-147.3 20.99-97.7 14.51-198.23 8.15-297 41.67 32.24 84.8 66.02 136.2 80.97 21.82 7.23 47.45-0.4003 60.25-19.82 21.2-30.65 27.24-68.82 30.85-105.15 5.99-61.7-3.0909-126.68-36.161-180.1 0.42-3.19-0.18-5.9894-3.4-7.5094-51.64-63.07-71.059-143.82-89.609-221.29-8.15-35.33-41.62-54.909-73.67-65.389-55.21-18.29-112.66-29.771-169.74-40.111-16-10.34-27.79-27.099-44.17-36.869 7.1-35.87 15.03-72.51 15.82-109.65-2.32-15.84 19.68-11.97 23.4-24.67 12.54-28.76 18.999-61.45 14.609-92.63-1.54-9.58-10.3-9.4009-17.38-7.4609 4.25-46.89-1.81-100.93-39-134.15-31.455-32.826-76.932-50.16-122.02-50.103-39.784 0.0499-79.267 13.639-108.55 42.073-38.88 36.76-43.039 94.161-42.059 144.34-7.44-0.96-16.31-13.901-21.05-1.2812-3.01 29.56 6.14 59.241 15.6 87.041 1.97 12.88 19.19 13.35 20.48 26.53 5.55 28.54 11.04 57.6 12.83 86.53-14.57 17.05-25.84 37.52-43.72 51.37-47.07 36.52-110.4 41.371-167.96 36.941-3.55-0.15-4.4906-3.5703-5.7406-6.2703-12.25-28.11-23.179-56.8-34.989-85.1-8.12-33.57 38.45-54.5 25.75-87.65-10.13-29.84 0.01-62.201-8.8312-92.141-2.08-9.8-19.2-7.1694-18.7-18.209 1.5-14.36 4.0012-28.709 4.8312-43.009 43.84 0.8 87.67 2.7894 131.58 2.1594 3.65-101.86 5.9-203.88 7.15-305.88-60.576-1.4438-121.17-2.0375-181.78-2.0562z" fill="#febb77"/>
<path id="path4" d="m1303.1 18.04c69.28-0.16 138.53 0.38 207.76 2.03-1.25 102-3.5 204.02-7.15 305.88-43.91 0.63-87.74-1.36-131.58-2.16-8.67-31.12-43.49-42.77-69.59-55.72 1.11-83.33 0.01-166.7 0.56-250.03z" fill="#fa5422"/>
<path id="path6" d="m1744.2 182.63c-39.784 0.0499-79.267 13.639-108.55 42.073-38.88 36.76-43.039 94.161-42.059 144.34 6.92 9.98 12.529 20.669 16.909 31.989-1.56-38.15 3.1597-79.89 30.38-109.1 33.55-35.67 86.121-42.549 132.61-41.439 34.68 0.68 73.98 7.2988 97.45 35.519 21.95 29.31 22.559 68.17 18.919 103.05 4.56-7.49 7.3109-17.03 15.361-22.18 4.25-46.89-1.81-100.93-39-134.15-31.455-32.826-76.932-50.16-122.02-50.103zm-46.05 199.9c-11.17 0.77-22.67 7.3806-30.07 14.591 20.21-0.07 40.42-0.41 60.62 0.2-7.31-7.59-19.08-14.691-30.55-14.791zm125.7 0.39062c-1.7147 0.017-3.4475 0.18407-5.1937 0.52031-9.51 2.08-17.609 8.0991-25.119 13.989 20.5 1.02 42.589 1 62.569-0.05-9.1088-7.385-20.254-14.578-32.256-14.459z" fill="#9a440a"/>
</g>
<path id="path16" d="m1692.2 406.94c-6.37 2.11-15.671 0.65938-19.241 7.2094 2.67 6.92 11.859 9.3597 18.759 11.03-4.02-5.5-2.0188-12.559 0.4812-18.239zm139.81 1.0891c0.92 5.49 3.3597 11.85 0.03 17 6.55-1.71 17.32-3.5097 17.8-11.63-4.35-4.87-11.73-5.0803-17.83-5.3703zm-123.13 0.0203c0.74 6 1.6797 12.34-0.7703 18.1 4.98-1.51 10.329-2.4197 14.809-5.2297-2.24-6.35-7.1891-11.66-14.039-12.87zm103.96 1.0516c-4.4195-0.18919-12.17 6.8097-11.698 12.528 4.24 2.11 8.7997 4.2997 13.63 4.2797-0.51-5.5-1.0297-11.009-0.6797-16.509-0.3731-0.18282-0.7944-0.27886-1.2516-0.29844zm-191.4 158.76c-14.57 17.05-25.84 37.52-43.72 51.37 9.85 23.2 19.411 46.52 29.041 69.8 26.7 1.77 60.92-8.3694 84.58 9.8406 2.62-13.43 5.09-28.081-1.45-40.841-9.42-23.38-34.221-33.38-52.191-48.77-11.61-10.57-13.829-26.77-16.259-41.4zm247.32 33.431c-1.15 16.71-8.6597 33.45-23.73 41.88 8.82 12.31 20.35 23.82 30.1 35.92 34.9 11.59 68.62 31.159 106.33 30.209-20.42-24.56-46.08-47.311-68.53-71.141-16-10.34-27.79-27.099-44.17-36.869zm432.8 2625.2c-6.61 1.47-7.09 14.261-15.25 15.031-23.25 3.58-46.391 8.5097-69.941 9.6797-28.21 22.49-46.139 56.34-58.259 89.97 8.47-5.22 15.679-12.24 24.409-17.05 12.18 15.96 24.611 31.91 36.061 48.35-2.02 25.4-6.6997 50.699-8.8297 76.159-17.69-2.1-35.231-7.16-52.791-10.65 21.17 83.34 107.22 144.56 193.03 135.09 51.5-4.24 100.38-31.581 131.08-73.131-6.4-5.36-14.509-9.15-19.159-16.25 5.55-23.13 11.601-46.24 18.591-68.95 11.84-13.37 24.639-26.009 36.859-39.089-1.92-27.29-10.781-53.561-22.941-77.911-71.58 1.35-130.18-44.1-192.86-71.25zm23.009 68.481c26.92 1.7 53.94 3.1688 80.75 5.5688 6.82 25.79 13.181 51.751 20.441 77.431-24.73 12.73-49.84 24.7-74.8 36.98-19.45-18.18-39.03-36.371-57.92-55.191 9.63-21.95 19.9-43.849 31.53-64.789zm8.8812 198.61c20.02 4.95 36.329 23.65 54.469 34.52-13.18 13.03-26.84 26.07-41.13 37.82-23.46-5.59-47.05-10.721-70.53-16.191-3.25-17.05-5-34.55-7.15-51.73 21.49-0.21 42.881-3.1203 64.341-4.4203z" fill="#fff"/>
<path id="path18" d="m1703.4 406.6c-3.7328 0.0267-8.1562 0.95313-11.162 0.34062-2.5 5.68-4.5012 12.739-0.4812 18.239 4.98 2.59 11.281 4.1703 16.391 0.97031 2.45-5.76 1.5103-12.1 0.7703-18.1-1.2862-1.1588-3.2775-1.466-5.5172-1.45zm115.01 0.325c-1.8915 0.0814-3.4391 0.70938-4.2828 2.475-0.35 5.5 0.1697 11.009 0.6797 16.509 4.93 4.93 12.12 1.9403 17.27-0.87969 3.33-5.15 0.8903-11.51-0.03-17-3.6506 1.1825-9.4761-1.2837-13.638-1.1047zm-61.083 146.8c-7.76-0.0638-15.025 3.6822-13.45 11.417 0.22 4.08-1.0903 9.7397 1.1297 12.68 13.86 0.35 22.48 13.899 34.7 16.959 3.02-9.16-3.8294-20.2-5.9594-29.62-0.405-7.5-8.6603-11.372-16.42-11.436zm-179.55 65.506c-47.07 36.52-110.4 41.371-167.96 36.941 26.91 26.41 55.999 51.509 76.409 83.609 16.5 28.1 18.141 62.771 10.441 93.911-8.28 37.92-26.981 77.289-62.711 96.269-26.27 14.26-57.5 15.691-86.6 11.891-1.96 4.78 2.8212 12.799 4.3312 18.559 28.1 92.47 59.159 184.13 84.459 277.44 17.67 61.29-3.2994 123.53-8.3094 184.98-2.29 21.78 6.66 43.29 21.2 59.22 6.41 3.96-0.08 9.5694-2.6203 13.359-26.39 36.21-35.11 82.471-30.4 126.44 13.23 192.04 32.509 383.65 49.559 575.37 7.82 10.79 22.771 12.379 33.961 18.459 39.72 9.98 81.149 7.8803 121.67 5.5203 60.57-3.38 122.04-12.49 177.47-38.38 13.82-10.25 31.36-15.87 45.13-26.2-9.01-54.39-5.5794-112.03 9.2906-164.49 41.95 29.22 83.61 60.981 125.42 91.141 2.16 1.42 2.4897-2.2703 3.4797-3.5203 8.36-22.79 15.409-46.05 24.009-68.75 16.12-42.59 49.321-79.701 92.711-95.291 58.37-21.03 120.82-25.969 182.12-31.689 6.65-0.96 13.419-1.0606 20.089-1.9906-56.85-82.83-118.93-162.07-180.86-241.17-23.21-49.15-47.1-97.99-69.95-147.3 20.99-97.7 14.51-198.23 8.15-297-108.78-134.61-218.77-268.29-329.64-401.2-12.17-16.5-24.679-34.109-28.209-54.769-3.37-13.83-1.6803-29.04-9.0203-41.72-23.66-18.21-57.88-8.0706-84.58-9.8406-9.63-23.28-19.191-46.6-29.041-69.8zm335.21 18.93c22.45 23.83 48.11 46.581 68.53 71.141-37.71 0.95-71.43-18.619-106.33-30.209-7.64 20.55-13.81 42.26-11.82 64.43 3.41 25.9 20.77 46.72 37.9 65.2 29.86 30.15 63.84 55.71 97.13 81.88 32.06 26.79 62.78 55.31 94.78 82.07 33.67-13.3 68.111-27.671 104.86-28.691 18.13-0.04 34.269 9.9903 47.969 20.97-51.64-63.07-71.059-143.82-89.609-221.29-8.15-35.33-41.62-54.909-73.67-65.389-55.21-18.29-112.66-29.771-169.74-40.111zm301.8 1790c-0.7355 0.047-1.3025 0.4016-1.475 1.4141-8.98 38.8-19.59 77.581-22.28 117.48 1.1 41.95 9.5997 83.219 13.98 124.89 10.5 94.98 18.95 190.42 17.98 286.06 0.82 56.2-7.0297 112.39-23.88 166.07-5.06 15.63-11.321 35.43 1.8094 48.97 19.46 20.9 48.04 28.1 72.85 40.37 0.37 1.4 0.4609 3.42-1.3391 3.9-19.43 9.22-41.311 18.92-55.981 33.82 23.55-1.17 46.691-6.0997 69.941-9.6797 8.16-0.77 8.64-13.561 15.25-15.031 62.68 27.15 121.28 72.6 192.86 71.25 19.54-0.01 48.641-4.1891 50.361-28.939-1.57-21.39-13.611-40.151-24.911-57.741-34.22-51.73-79.859-94.62-129.02-131.97-23.05-17.23-40.98-42.889-42.82-72.259-2.51-61.14 16.069-120.31 30.709-178.96 35.37-124.85 63.44-251.61 86.83-379.21-0.48-2.02 3.6506-8.8394-1.3094-7.7594-48.83 35.35-113.81 21.669-169.94 22.809-26.61-7.4-50.489-23.14-75.589-34.75-1.1062-0.031-2.7991-0.812-4.025-0.7344zm-448.7 190.67c-0.2725-0.01-0.5503 0.01-0.8328 0.048-26.17 16.76-53.76 32.161-83.9 40.411-42.52 10.94-85.84-4.4003-123.7-23.17-3.15-0.51-6.0697-1.7706-8.9297-3.0906 1.12 53.47 1.7003 106.9 3.4703 160.37 42.32 147.42 92.83 293.1 122.48 443.89 4.01 25.16 7.7097 51.62 0.2297 76.48-9.4 24.98-39.07 31.32-54.55 51.57-31.7 39.26-53.79 86.319-65.85 135.19-2.79 10.77-2.7791 28.201 10.961 31.231 47.22 8.3 98.339 9.29 142.46-11.85 29.2-16.96 36.37-52.651 51.93-80.081 16.12-27.91 49.141-36.92 73.411-55.55 13.19-13 5.18-32.889 0.2-47.789-61.9-167.17-54.7-348.84-46.65-523.78 1.39-64.82-6.6009-129.45-18.411-193.11-0.7275-0.48-1.4997-0.7402-2.3172-0.7687zm558.57 676.08c-11.63 20.94-21.9 42.839-31.53 64.789 18.89 18.82 38.47 37.011 57.92 55.191 24.96-12.28 50.07-24.25 74.8-36.98-7.26-25.68-13.621-51.641-20.441-77.431-26.81-2.4-53.83-3.8688-80.75-5.5688zm-142.05 29.15c-8.73 4.81-15.939 11.83-24.409 17.05-11.29 30.78-8.59 65.179-1.15 96.809 17.56 3.49 35.101 8.55 52.791 10.65 2.13-25.46 6.8097-50.759 8.8297-76.159-11.45-16.44-23.881-32.39-36.061-48.35zm334.84 51.53c-12.22 13.08-25.019 25.719-36.859 39.089-6.99 22.71-13.041 45.82-18.591 68.95 4.65 7.1 12.759 10.89 19.159 16.25 26.05-35.54 40.231-80.109 36.291-124.29zm-183.9 117.9c-21.46 1.3-42.851 4.2103-64.341 4.4203 2.15 17.18 3.9 34.68 7.15 51.73 23.48 5.47 47.07 10.601 70.53 16.191 14.29-11.75 27.95-24.79 41.13-37.82-18.14-10.87-34.449-29.57-54.469-34.52z"/>
<path id="path28" d="m1787.5 492.53c-7.14 4.88-13.629 10.68-20.859 15.45-9.34-1.36-18.221-4.96-27.411-7.05 8.75 8.6 17.591 19.081 27.611 26.961 6.51-11.36 16.639-25.501 20.659-35.361zm-29.767 56.373c-12.328 0.0526-24.687 1.5556-36.642 4.1469-2.29 0.73-7.1597 3.0003-3.6797 5.5203 7.86 4.46 17.419 6.3603 26.439 6.5703-3.15-15.47 29.06-14.981 29.87 0.0188 13.98-2.99 29.601-0.96938 43.391-2.7594-18.369-9.6438-38.831-13.585-59.378-13.497z" fill="#e09252"/>
</g>
</svg>
